<?xml version="1.0" encoding="UTF-8"?>
<svg version="1.1" xmlns="http://www.w3.org/2000/svg" width="32" height="32">
<path d="M0 0 C10.56 0 21.12 0 32 0 C32 10.56 32 21.12 32 32 C21.44 32 10.88 32 0 32 C0 21.44 0 10.88 0 0 Z " fill="#25272D" transform="translate(0,0)"/>
<path d="M0 0 C0.48192771 7.22891566 0.48192771 7.22891566 -1.5625 10.5 C-4.82028019 12.50478781 -7.24782833 12.28862859 -11 12 C-11.96846689 9.38513938 -12.04559628 8.1557873 -11.25 5.4375 C-8.65927639 0.38558897 -5.66541237 -1.75823143 0 0 Z " fill="#19668B" transform="translate(19,16)"/>
<path d="M0 0 C2.96865509 2.54456151 4.3619751 5.48994665 6 9 C5.01 8.67 4.02 8.34 3 8 C2.95101563 8.77085938 2.90203125 9.54171875 2.8515625 10.3359375 C2.77679688 11.33882812 2.70203125 12.34171875 2.625 13.375 C2.55539063 14.37273438 2.48578125 15.37046875 2.4140625 16.3984375 C2 19 2 19 0 21 C-0.04898437 20.31292969 -0.09796875 19.62585938 -0.1484375 18.91796875 C-0.22320313 18.01691406 -0.29796875 17.11585937 -0.375 16.1875 C-0.44460937 15.29417969 -0.51421875 14.40085937 -0.5859375 13.48046875 C-0.86645036 10.75601501 -0.86645036 10.75601501 -3 8 C-2.67 7.34 -2.34 6.68 -2 6 C-3.32 5.67 -4.64 5.34 -6 5 C-4.02 3.35 -2.04 1.7 0 0 Z " fill="#2693BF" transform="translate(20,4)"/>
<path d="M0 0 C0.29296875 6.0546875 0.29296875 6.0546875 0 8 C-0.99 8.66 -1.98 9.32 -3 10 C-3.66 9.67 -4.32 9.34 -5 9 C-4.67 7.68 -4.34 6.36 -4 5 C-4.99 5 -5.98 5 -7 5 C-7.33 3.68 -7.66 2.36 -8 1 C-4.93251126 -0.86240388 -3.40254489 -1.2151946 0 0 Z " fill="#228AAB" transform="translate(19,16)"/>
<path d="M0 0 C2.41796875 0.33984375 2.41796875 0.33984375 5 1 C6.3125 3.5625 6.3125 3.5625 7 6 C5.68 5.34 4.36 4.68 3 4 C2.34 7.63 1.68 11.26 1 15 C0.01 15 -0.98 15 -2 15 C-1.67 14.01 -1.34 13.02 -1 12 C-0.77674186 9.94106379 -0.59294241 7.87766347 -0.4375 5.8125 C-0.35371094 4.72582031 -0.26992188 3.63914062 -0.18359375 2.51953125 C-0.12300781 1.68808594 -0.06242187 0.85664063 0 0 Z " fill="#13141B" transform="translate(22,11)"/>
<path d="M0 0 C0.99 0.99 1.98 1.98 3 3 C3.66 2.67 4.32 2.34 5 2 C4.67 3.32 4.34 4.64 4 6 C1.69 6 -0.62 6 -3 6 C-3.33 5.01 -3.66 4.02 -4 3 C-2.68 2.01 -1.36 1.02 0 0 Z " fill="#194377" transform="translate(11,22)"/>
<path d="M0 0 C0.33 1.32 0.66 2.64 1 4 C-3.5 7 -3.5 7 -8 10 C-6.34908222 5.70761377 -3.26245434 3.1206085 0 0 Z " fill="#A97D2E" transform="translate(15,11)"/>
<path d="M0 0 C0.66 0.33 1.32 0.66 2 1 C2 2.65 2 4.3 2 6 C1.67 5.34 1.34 4.68 1 4 C0.01 4.66 -0.98 5.32 -2 6 C-4.1875 5.625 -4.1875 5.625 -6 5 C-4.02 3.35 -2.04 1.7 0 0 Z " fill="#4AE2F0" transform="translate(20,4)"/>
<path d="M0 0 C0.33 0.66 0.66 1.32 1 2 C-0.5625 4.0625 -0.5625 4.0625 -3 6 C-6.75 5.75 -6.75 5.75 -10 5 C-9.34 4.34 -8.68 3.68 -8 3 C-6.7934375 3.0309375 -6.7934375 3.0309375 -5.5625 3.0625 C-2.93712179 3.26281458 -2.93712179 3.26281458 -1.1875 1.5 C-0.795625 1.005 -0.40375 0.51 0 0 Z " fill="#11151F" transform="translate(18,24)"/>
</svg>
